<svg width="30" height="30" viewBox="0 0 30 30" fill="none" xmlns="http://www.w3.org/2000/svg">
<path d="M18.9063 14.4688L22.7188 12.2812C22.8854 12.1875 22.9688 12.0547 22.9688 11.8828C22.9688 11.7109 22.8854 11.5729 22.7188 11.4688L18.9063 9.28125C18.7671 9.19792 18.6126 9.15625 18.4425 9.15625C18.2725 9.15625 18.1146 9.19792 17.9688 9.28125L14.1563 11.4688C13.9896 11.5625 13.9063 11.6953 13.9063 11.8672C13.9063 12.0391 13.9896 12.1771 14.1563 12.2812L17.9688 14.4688C18.1079 14.5521 18.2624 14.5938 18.4325 14.5938C18.6025 14.5938 18.7604 14.5521 18.9063 14.4688ZM18.9063 18.2812L21.4063 16.8438C21.5469 16.7664 21.6602 16.6542 21.7461 16.5072C21.832 16.3601 21.875 16.2015 21.875 16.0312V13.9375L18.9063 15.6562C18.7671 15.7396 18.6126 15.7812 18.4425 15.7812C18.2725 15.7812 18.1146 15.7396 17.9688 15.6562L15 13.9375V16.0312C15 16.2015 15.043 16.3601 15.1289 16.5072C15.2148 16.6542 15.3281 16.7664 15.4688 16.8438L17.9688 18.2812C18.1079 18.3646 18.2624 18.4062 18.4325 18.4062C18.6025 18.4062 18.7604 18.3646 18.9063 18.2812ZM25.6563 25H18.7813C18.7813 24.6875 18.7708 24.375 18.75 24.0625C18.7292 23.75 18.6979 23.4375 18.6563 23.125H25.6563V6.875H4.40625V8.75C4.09375 8.70833 3.78125 8.67708 3.46875 8.65625C3.15625 8.63542 2.84375 8.625 2.53125 8.625V6.875C2.53125 6.35938 2.71484 5.91797 3.08203 5.55078C3.44922 5.18359 3.89063 5 4.40625 5H25.6563C26.1719 5 26.6133 5.18359 26.9805 5.55078C27.3477 5.91797 27.5313 6.35938 27.5313 6.875V23.125C27.5313 23.6406 27.3477 24.082 26.9805 24.4492C26.6133 24.8164 26.1719 25 25.6563 25ZM9.70416 25C9.45972 25 9.24583 24.9237 9.0625 24.771C8.87917 24.6183 8.76458 24.4134 8.71875 24.1562C8.53125 22.7188 7.94271 21.4948 6.95313 20.4844C5.96354 19.474 4.76042 18.875 3.34375 18.6875C3.11458 18.6458 2.92188 18.5307 2.76563 18.3421C2.60938 18.1536 2.53125 17.9386 2.53125 17.6972C2.53125 17.4407 2.60938 17.2188 2.76563 17.0312C2.92188 16.8438 3.11458 16.7604 3.34375 16.7812C5.28125 16.9688 6.92708 17.7552 8.28125 19.1406C9.63542 20.526 10.4167 22.1875 10.625 24.125C10.6667 24.3706 10.5885 24.5778 10.3906 24.7467C10.1927 24.9156 9.96389 25 9.70416 25ZM14.7188 25C14.4688 25 14.25 24.9167 14.0625 24.75C13.875 24.5833 13.7708 24.375 13.75 24.125C13.5208 21.3333 12.4427 18.9479 10.5156 16.9688C8.58854 14.9896 6.23958 13.8854 3.46875 13.6562C3.19792 13.6354 2.97396 13.5307 2.79688 13.3421C2.61979 13.1535 2.53125 12.9335 2.53125 12.682C2.53125 12.4148 2.64063 12.1927 2.85938 12.0156C3.07813 11.8385 3.33333 11.7604 3.625 11.7812C6.84917 12.0475 9.59271 13.3328 11.8556 15.6372C14.1185 17.9416 15.375 20.7188 15.625 23.9688C15.6458 24.2604 15.5664 24.5052 15.3867 24.7031C15.207 24.901 14.9844 25 14.7188 25ZM3.71434 25C3.36311 25 3.06771 24.8787 2.82813 24.6362C2.58854 24.3937 2.46875 24.0968 2.46875 23.7456C2.46875 23.3944 2.59 23.099 2.8325 22.8594C3.07504 22.6198 3.37193 22.5 3.72316 22.5C4.07439 22.5 4.36979 22.6213 4.60938 22.8638C4.84896 23.1063 4.96875 23.4032 4.96875 23.7544C4.96875 24.1056 4.84749 24.401 4.60497 24.6406C4.36245 24.8802 4.06557 25 3.71434 25Z" fill="#CCF235"/>
</svg>
