<svg width="30" height="30" viewBox="0 0 30 30" fill="none" xmlns="http://www.w3.org/2000/svg">
<path d="M14.9688 25.9688C14.8107 25.9688 14.6566 25.9531 14.5065 25.9219C14.3563 25.8906 14.2083 25.8333 14.0625 25.75L6.875 21.8125C6.58333 21.6458 6.34896 21.418 6.17188 21.1289C5.99479 20.8398 5.90625 20.5156 5.90625 20.1562V13.7812L2.75 12.0625C2.58631 11.9696 2.46726 11.8536 2.39284 11.7143C2.31845 11.575 2.28125 11.4202 2.28125 11.25C2.28125 11.0798 2.31845 10.925 2.39284 10.7857C2.46726 10.6464 2.58631 10.5304 2.75 10.4375L14.0625 4.25C14.2056 4.16667 14.3526 4.10417 14.5037 4.0625C14.6547 4.02083 14.8098 4 14.9688 4C15.1278 4 15.2828 4.02083 15.4338 4.0625C15.5849 4.10417 15.7319 4.16667 15.875 4.25L28.25 10.9688C28.4167 11.0729 28.5417 11.1976 28.625 11.3427C28.7083 11.4878 28.75 11.6444 28.75 11.8125V20.2188C28.75 20.4844 28.6596 20.707 28.4789 20.8867C28.2982 21.0664 28.0742 21.1562 27.807 21.1562C27.5398 21.1562 27.3177 21.0664 27.1406 20.8867C26.9635 20.707 26.875 20.4844 26.875 20.2188V12.3438L24.0313 13.7812V20.1562C24.0313 20.5156 23.9427 20.8398 23.7656 21.1289C23.5885 21.418 23.3542 21.6458 23.0625 21.8125L15.875 25.75C15.7292 25.8333 15.5812 25.8906 15.431 25.9219C15.2809 25.9531 15.1268 25.9688 14.9688 25.9688ZM14.9688 16.625L24.8125 11.25L14.9688 5.96875L5.1875 11.25L14.9688 16.625ZM14.9688 24.125L22.1563 20.1562V14.9062L15.875 18.2812C15.7292 18.3646 15.5833 18.4219 15.4375 18.4531C15.2917 18.4844 15.1354 18.5 14.9688 18.5C14.8021 18.5 14.651 18.4844 14.5156 18.4531C14.3802 18.4219 14.2396 18.3646 14.0938 18.2812L7.78125 14.8438V20.1562L14.9688 24.125Z" fill="#CCF235"/>
</svg>
