<svg width="30" height="30" viewBox="0 0 30 30" fill="none" xmlns="http://www.w3.org/2000/svg">
<path d="M16.5938 27.5C16.1146 27.5 15.7656 27.3438 15.5469 27.0312C15.3281 26.7188 15.3021 26.3333 15.4688 25.875L20.0625 13.6875C20.1875 13.3542 20.4167 13.0729 20.75 12.8438C21.0833 12.6146 21.4271 12.5 21.7813 12.5C22.1354 12.5 22.4844 12.6146 22.8281 12.8438C23.1719 13.0729 23.4063 13.3542 23.5313 13.6875L28.2188 25.75C28.4063 26.2292 28.3854 26.6406 28.1563 26.9844C27.9271 27.3281 27.5417 27.5 27 27.5C26.7708 27.5 26.5521 27.4271 26.3438 27.2812C26.1354 27.1354 25.9896 26.9479 25.9063 26.7188L24.875 23.5625H18.875L17.6875 26.75C17.6042 26.9583 17.4583 27.1354 17.25 27.2812C17.0417 27.4271 16.8229 27.5 16.5938 27.5ZM19.5625 21.375H24L21.8125 15.3125H21.75L19.5625 21.375ZM9.03125 10.6875C9.34375 11.2292 9.6875 11.7552 10.0625 12.2656C10.4375 12.776 10.8438 13.3021 11.2813 13.8438C12.2188 12.8646 13 11.849 13.625 10.7969C14.25 9.74479 14.7813 8.64583 15.2188 7.5H2.5C2.14583 7.5 1.84896 7.38021 1.60938 7.14062C1.36979 6.90104 1.25 6.60417 1.25 6.25C1.25 5.89583 1.36979 5.59896 1.60938 5.35938C1.84896 5.11979 2.14583 5 2.5 5H10V3.75C10 3.39583 10.1198 3.09896 10.3594 2.85938C10.599 2.61979 10.8958 2.5 11.25 2.5C11.6042 2.5 11.901 2.61979 12.1406 2.85938C12.3802 3.09896 12.5 3.39583 12.5 3.75V5H20C20.3542 5 20.651 5.11979 20.8906 5.35938C21.1302 5.59896 21.25 5.89583 21.25 6.25C21.25 6.60417 21.1302 6.90104 20.8906 7.14062C20.651 7.38021 20.3542 7.5 20 7.5H17.7188C17.2604 8.9375 16.651 10.349 15.8906 11.7344C15.1302 13.1198 14.1979 14.4375 13.0938 15.6875L16.1563 18.7812L15.2188 21.3125L11.25 17.5L5.84375 22.9062C5.61458 23.1354 5.33333 23.25 5 23.25C4.66667 23.25 4.38542 23.125 4.15625 22.875C3.90625 22.6458 3.78125 22.3646 3.78125 22.0312C3.78125 21.6979 3.90625 21.4062 4.15625 21.1562L9.65625 15.6562C9.11458 15.0104 8.60417 14.3594 8.125 13.7031C7.64583 13.0469 7.20833 12.375 6.8125 11.6875C6.5625 11.2292 6.54167 10.8333 6.75 10.5C6.95833 10.1667 7.33333 10 7.875 10C8.10417 10 8.32813 10.0677 8.54688 10.2031C8.76563 10.3385 8.92708 10.5 9.03125 10.6875Z" fill="#CCF235"/>
</svg>
