<svg width="449" height="49" viewBox="0 0 449 49" fill="none" xmlns="http://www.w3.org/2000/svg">
<path d="M19.832 12.352L22.232 17.68L7.06399 24.016L22.232 30.16L19.832 35.68L0.631989 27.376V20.704L19.832 12.352Z" fill="#1C1C1C"/>
<path d="M38.7226 0.832001L45.3466 2.32L34.0666 45.376L27.3946 43.84L38.7226 0.832001Z" fill="#1C1C1C"/>
<path d="M52.8601 12.352L72.0601 20.704V27.376L52.8601 35.68L50.4601 30.16L65.6281 24.016L50.4601 17.68L52.8601 12.352Z" fill="#1C1C1C"/>
<path d="M97.3974 34.96C97.3974 37.616 96.9174 39.808 95.9574 41.536C95.0294 43.264 93.7814 44.608 92.2134 45.568C90.6774 46.56 88.8374 47.408 86.6934 48.112L84.5814 42.544C85.9894 42 87.0454 41.376 87.7494 40.672C88.4534 39.968 88.9174 39.152 89.1414 38.224C89.3974 37.296 89.5254 36.112 89.5254 34.672V6.736H97.3974V34.96Z" fill="#1C1C1C"/>
<path d="M125.544 26.752C125.544 27.808 125.496 28.72 125.4 29.488H109.608C109.864 31.632 110.472 33.136 111.432 34C112.392 34.864 113.72 35.296 115.416 35.296C116.44 35.296 117.432 35.12 118.392 34.768C119.352 34.384 120.392 33.808 121.512 33.04L124.632 37.264C121.656 39.632 118.344 40.816 114.696 40.816C110.568 40.816 107.4 39.6 105.192 37.168C102.984 34.736 101.88 31.472 101.88 27.376C101.88 24.784 102.344 22.464 103.272 20.416C104.2 18.336 105.56 16.704 107.352 15.52C109.144 14.304 111.288 13.696 113.784 13.696C117.464 13.696 120.344 14.848 122.424 17.152C124.504 19.456 125.544 22.656 125.544 26.752ZM118.104 24.592C118.04 20.688 116.664 18.736 113.976 18.736C112.664 18.736 111.64 19.216 110.904 20.176C110.2 21.136 109.768 22.72 109.608 24.928H118.104V24.592Z" fill="#1C1C1C"/>
<path d="M141.468 9.184C140.38 9.184 139.596 9.44 139.116 9.952C138.636 10.464 138.396 11.328 138.396 12.544V14.512H144.396L143.58 19.792H138.396V40H130.812V19.792H126.972V14.512H130.812V12.256C130.812 9.696 131.644 7.616 133.308 6.016C135.004 4.384 137.42 3.568 140.556 3.568C143.084 3.568 145.404 4.112 147.516 5.2L145.452 10.144C144.172 9.504 142.844 9.184 141.468 9.184Z" fill="#1C1C1C"/>
<path d="M168.669 26.752C168.669 27.808 168.621 28.72 168.525 29.488H152.733C152.989 31.632 153.597 33.136 154.557 34C155.517 34.864 156.845 35.296 158.541 35.296C159.565 35.296 160.557 35.12 161.517 34.768C162.477 34.384 163.517 33.808 164.637 33.04L167.757 37.264C164.781 39.632 161.469 40.816 157.821 40.816C153.693 40.816 150.525 39.6 148.317 37.168C146.109 34.736 145.005 31.472 145.005 27.376C145.005 24.784 145.469 22.464 146.397 20.416C147.325 18.336 148.685 16.704 150.477 15.52C152.269 14.304 154.413 13.696 156.909 13.696C160.589 13.696 163.469 14.848 165.549 17.152C167.629 19.456 168.669 22.656 168.669 26.752ZM161.229 24.592C161.165 20.688 159.789 18.736 157.101 18.736C155.789 18.736 154.765 19.216 154.029 20.176C153.325 21.136 152.893 22.72 152.733 24.928H161.229V24.592Z" fill="#1C1C1C"/>
<path d="M186.753 13.792C187.681 13.792 188.529 13.904 189.297 14.128L188.097 21.472C187.137 21.248 186.369 21.136 185.793 21.136C184.289 21.136 183.137 21.664 182.337 22.72C181.569 23.744 180.961 25.296 180.513 27.376V40H172.929V14.512H179.553L180.177 19.456C180.753 17.696 181.617 16.32 182.769 15.328C183.953 14.304 185.281 13.792 186.753 13.792Z" fill="#1C1C1C"/>
<path d="M200.608 13.696C202.432 13.696 204.144 13.968 205.744 14.512C207.344 15.056 208.752 15.824 209.968 16.816L207.184 21.088C205.104 19.776 203.008 19.12 200.896 19.12C199.904 19.12 199.136 19.296 198.592 19.648C198.08 19.968 197.824 20.432 197.824 21.04C197.824 21.52 197.936 21.92 198.16 22.24C198.416 22.528 198.912 22.832 199.648 23.152C200.384 23.472 201.52 23.856 203.056 24.304C205.712 25.072 207.68 26.08 208.96 27.328C210.272 28.544 210.928 30.24 210.928 32.416C210.928 34.144 210.432 35.648 209.44 36.928C208.448 38.176 207.088 39.136 205.36 39.808C203.632 40.48 201.712 40.816 199.6 40.816C197.456 40.816 195.456 40.48 193.6 39.808C191.776 39.136 190.224 38.208 188.944 37.024L192.64 32.896C194.784 34.56 197.04 35.392 199.408 35.392C200.56 35.392 201.456 35.184 202.096 34.768C202.768 34.352 203.104 33.76 203.104 32.992C203.104 32.384 202.976 31.904 202.72 31.552C202.464 31.2 201.968 30.88 201.232 30.592C200.496 30.272 199.328 29.888 197.728 29.44C195.2 28.704 193.312 27.68 192.064 26.368C190.816 25.056 190.192 23.424 190.192 21.472C190.192 20 190.608 18.688 191.44 17.536C192.304 16.352 193.52 15.424 195.088 14.752C196.688 14.048 198.528 13.696 200.608 13.696Z" fill="#1C1C1C"/>
<path d="M225.875 13.696C229.779 13.696 232.835 14.896 235.043 17.296C237.251 19.664 238.355 22.992 238.355 27.28C238.355 30 237.843 32.384 236.819 34.432C235.827 36.448 234.387 38.016 232.499 39.136C230.643 40.256 228.435 40.816 225.875 40.816C222.003 40.816 218.947 39.632 216.707 37.264C214.499 34.864 213.395 31.52 213.395 27.232C213.395 24.512 213.891 22.144 214.883 20.128C215.907 18.08 217.347 16.496 219.203 15.376C221.091 14.256 223.315 13.696 225.875 13.696ZM225.875 19.264C224.339 19.264 223.187 19.92 222.419 21.232C221.651 22.512 221.267 24.512 221.267 27.232C221.267 30.016 221.635 32.048 222.371 33.328C223.139 34.608 224.307 35.248 225.875 35.248C227.411 35.248 228.563 34.608 229.331 33.328C230.099 32.016 230.483 30 230.483 27.28C230.483 24.496 230.099 22.464 229.331 21.184C228.595 19.904 227.443 19.264 225.875 19.264Z" fill="#1C1C1C"/>
<path d="M257.795 13.696C260.003 13.696 261.731 14.368 262.979 15.712C264.227 17.056 264.851 18.944 264.851 21.376V40H257.267V22.672C257.267 21.392 257.059 20.512 256.643 20.032C256.259 19.52 255.667 19.264 254.867 19.264C253.331 19.264 251.859 20.368 250.451 22.576V40H242.867V14.512H249.491L250.019 17.536C251.107 16.256 252.275 15.296 253.523 14.656C254.803 14.016 256.227 13.696 257.795 13.696Z" fill="#1C1C1C"/>
<path d="M315.128 40H307.4L306.824 26.992C306.664 23.888 306.584 21.12 306.584 18.688C306.584 16.832 306.632 15.072 306.728 13.408L301.592 36.496H294.152L288.68 13.408C288.872 16.192 288.968 18.816 288.968 21.28C288.968 23.136 288.92 25.072 288.824 27.088L288.248 40H280.568L283.064 6.736H293L297.992 29.296L302.648 6.736H312.632L315.128 40Z" fill="#1C1C1C"/>
<path d="M341.919 26.752C341.919 27.808 341.871 28.72 341.775 29.488H325.983C326.239 31.632 326.847 33.136 327.807 34C328.767 34.864 330.095 35.296 331.791 35.296C332.815 35.296 333.807 35.12 334.767 34.768C335.727 34.384 336.767 33.808 337.887 33.04L341.007 37.264C338.031 39.632 334.719 40.816 331.071 40.816C326.943 40.816 323.775 39.6 321.567 37.168C319.359 34.736 318.255 31.472 318.255 27.376C318.255 24.784 318.719 22.464 319.647 20.416C320.575 18.336 321.935 16.704 323.727 15.52C325.519 14.304 327.663 13.696 330.159 13.696C333.839 13.696 336.719 14.848 338.799 17.152C340.879 19.456 341.919 22.656 341.919 26.752ZM334.479 24.592C334.415 20.688 333.039 18.736 330.351 18.736C329.039 18.736 328.015 19.216 327.279 20.176C326.575 21.136 326.143 22.72 325.983 24.928H334.479V24.592Z" fill="#1C1C1C"/>
<path d="M361.107 13.696C363.315 13.696 365.043 14.368 366.291 15.712C367.539 17.056 368.163 18.944 368.163 21.376V40H360.579V22.672C360.579 21.392 360.371 20.512 359.955 20.032C359.571 19.52 358.979 19.264 358.179 19.264C356.643 19.264 355.171 20.368 353.763 22.576V40H346.179V14.512H352.803L353.331 17.536C354.419 16.256 355.587 15.296 356.835 14.656C358.115 14.016 359.539 13.696 361.107 13.696Z" fill="#1C1C1C"/>
<path d="M396.73 4.384V40H390.01L389.626 37.024C387.834 39.552 385.418 40.816 382.378 40.816C379.21 40.816 376.794 39.6 375.13 37.168C373.498 34.736 372.682 31.408 372.682 27.184C372.682 24.592 373.114 22.272 373.978 20.224C374.842 18.176 376.058 16.576 377.626 15.424C379.226 14.272 381.05 13.696 383.098 13.696C385.53 13.696 387.546 14.496 389.146 16.096V3.568L396.73 4.384ZM384.73 35.248C386.49 35.248 387.962 34.288 389.146 32.368V21.376C388.538 20.64 387.914 20.096 387.274 19.744C386.666 19.392 385.962 19.216 385.162 19.216C383.754 19.216 382.634 19.872 381.802 21.184C380.97 22.496 380.554 24.512 380.554 27.232C380.554 30.208 380.906 32.288 381.61 33.472C382.346 34.656 383.386 35.248 384.73 35.248Z" fill="#1C1C1C"/>
<path d="M424.887 26.752C424.887 27.808 424.84 28.72 424.743 29.488H408.951C409.207 31.632 409.815 33.136 410.775 34C411.735 34.864 413.063 35.296 414.759 35.296C415.783 35.296 416.776 35.12 417.736 34.768C418.696 34.384 419.735 33.808 420.855 33.04L423.975 37.264C420.999 39.632 417.687 40.816 414.039 40.816C409.911 40.816 406.743 39.6 404.535 37.168C402.327 34.736 401.223 31.472 401.223 27.376C401.223 24.784 401.687 22.464 402.615 20.416C403.543 18.336 404.903 16.704 406.695 15.52C408.487 14.304 410.632 13.696 413.128 13.696C416.808 13.696 419.687 14.848 421.767 17.152C423.847 19.456 424.887 22.656 424.887 26.752ZM417.447 24.592C417.383 20.688 416.007 18.736 413.319 18.736C412.007 18.736 410.983 19.216 410.247 20.176C409.543 21.136 409.111 22.72 408.951 24.928H417.447V24.592Z" fill="#1C1C1C"/>
<path d="M438.124 13.696C439.948 13.696 441.66 13.968 443.26 14.512C444.86 15.056 446.268 15.824 447.484 16.816L444.7 21.088C442.62 19.776 440.524 19.12 438.412 19.12C437.42 19.12 436.652 19.296 436.108 19.648C435.596 19.968 435.34 20.432 435.34 21.04C435.34 21.52 435.452 21.92 435.676 22.24C435.932 22.528 436.428 22.832 437.164 23.152C437.9 23.472 439.036 23.856 440.572 24.304C443.228 25.072 445.196 26.08 446.476 27.328C447.788 28.544 448.444 30.24 448.444 32.416C448.444 34.144 447.948 35.648 446.956 36.928C445.964 38.176 444.604 39.136 442.876 39.808C441.148 40.48 439.228 40.816 437.116 40.816C434.972 40.816 432.972 40.48 431.116 39.808C429.292 39.136 427.74 38.208 426.46 37.024L430.156 32.896C432.3 34.56 434.556 35.392 436.924 35.392C438.076 35.392 438.972 35.184 439.612 34.768C440.284 34.352 440.62 33.76 440.62 32.992C440.62 32.384 440.492 31.904 440.236 31.552C439.98 31.2 439.484 30.88 438.748 30.592C438.012 30.272 436.844 29.888 435.244 29.44C432.716 28.704 430.828 27.68 429.58 26.368C428.332 25.056 427.708 23.424 427.708 21.472C427.708 20 428.124 18.688 428.956 17.536C429.82 16.352 431.036 15.424 432.604 14.752C434.204 14.048 436.044 13.696 438.124 13.696Z" fill="#1C1C1C"/>
</svg>
